<?xml version="1.0" encoding="UTF-8"?>
<svg width="593px" height="534px" viewBox="0 0 593 534" version="1.1" xmlns="http://www.w3.org/2000/svg" xmlns:xlink="http://www.w3.org/1999/xlink">
    <!-- Generator: Sketch 63.1 (92452) - https://sketch.com -->
    <title>Artboard</title>
    <desc>Created with Sketch.</desc>
    <g id="Artboard" stroke="none" stroke-width="1" fill="none" fill-rule="evenodd">
        <g id="matae-logo-emerald-light" transform="translate(0.000000, 1.000000)" fill-rule="nonzero">
            <g id="Group" transform="translate(147.000000, 0.000000)" fill="#006C63">
                <path d="M233.09,149.050222 C224.894015,135.395859 213.499848,123.939917 199.89,115.670222 C199.19,115.250222 198.46,114.830222 197.67,114.380222 C205.299789,136.706362 205.299789,160.934082 197.67,183.260222 C212.149576,174.995472 224.327152,163.233899 233.09,149.050222 Z" id="Path"></path>
                <path d="M245.51,117.740222 C249.52,97.975626 247.30503,77.4539651 239.17,59.000222 C216.10753,48.9160414 190.056642,48.057103 166.38,56.600222 C162.815016,57.8943041 159.331935,59.4037507 155.95,61.120222 C169.187686,69.725984 180.316532,81.2034612 188.51,94.700222 C190.443086,97.9187018 192.199032,101.240311 193.77,104.650222 C201.646953,108.292007 209.037619,112.904454 215.77,118.380222 C224.018825,125.114205 231.170859,133.089398 236.97,142.020222 C240.891603,134.346049 243.763982,126.179613 245.51,117.740222 L245.51,117.740222 Z" id="Path"></path>
                <path d="M284.29,199.720222 C305.6,164.400222 302.05,117.720222 275.67,86.140222 C268.046198,77.0214354 258.817405,69.3753993 248.44,63.580222 C258.52985,91.7821282 255.903593,122.972572 241.24,149.090222 C255.621123,175.15536 258.333698,206.079448 248.71,234.250222 C263.333683,225.980233 275.585796,214.089692 284.29,199.720222 L284.29,199.720222 Z" id="Path"></path>
                <path d="M188.33,109.750222 C163.370961,99.1052086 135.149039,99.1052086 110.19,109.750222 C98.9569286,134.665996 98.9569286,163.204448 110.19,188.120222 C135.132471,199.286153 163.667735,199.209681 188.55,187.910222 C199.130477,162.915431 199.051016,134.685055 188.33,109.750222 Z" id="Path"></path>
                <path d="M45.76,118.130222 C42.3127279,99.8127734 43.7756059,80.9092152 50,63.340222 C19.75,80.530222 0.19,113.850222 0,148.990222 C0.254221983,184.223697 19.1545677,216.685716 49.67,234.300222 C48.0346205,229.614167 46.7445056,224.814673 45.81,219.940222 C41.2919784,195.738812 45.3104729,170.719531 57.18,149.150222 C51.7167563,139.49774 47.8597398,129.020976 45.76,118.130222 L45.76,118.130222 Z" id="Path"></path>
                <path d="M234.63,248.250222 C211.883595,256.249546 187.079737,256.193061 164.37,248.090222 C159.084773,246.177178 153.964451,243.836077 149.06,241.090222 C122.934027,255.507194 91.9274182,258.195523 63.71,248.490222 C80.95,278.540222 114.19,297.970222 149.17,298.200222 C184.51708,297.949427 217.065487,278.925405 234.63,248.250222 L234.63,248.250222 Z" id="Path"></path>
                <path d="M199.89,13.860222 C164.57,-7.43977805 117.89,-3.89977805 86.31,22.480222 C77.2642479,30.0465403 69.6705932,39.1955217 63.9,49.480222 C68.5711349,47.8592819 73.3536803,46.5792575 78.21,45.650222 C84.636085,44.4094341 91.165229,43.7799577 97.71,43.770222 C115.656552,43.7934425 133.308659,48.3328505 149.04,56.970222 C158.685505,51.5179861 169.156629,47.6774481 180.04,45.600222 C198.268006,42.1648523 217.079402,43.5927801 234.58,49.740222 C226.306848,34.9869168 214.355981,22.6260897 199.89,13.860222 Z" id="Path"></path>
                <path d="M58.97,239.070222 C65.270811,241.854808 71.8516486,243.956787 78.6,245.340222 C100.115357,249.63273 122.447866,246.623859 142.06,236.790222 C125.887404,225.95979 112.996185,210.899858 104.79,193.250222 C87.2101906,185.008579 72.2041899,172.138885 61.38,156.020222 C49.3545498,180.162348 47.6898042,208.163298 56.77,233.560222 C57.39,235.310222 58.11,237.100222 58.97,239.070222 Z" id="Path"></path>
                <path d="M86.31,124.250222 C77.9008186,131.278788 70.7429104,139.680962 65.14,149.100222 C73.9160615,163.35336 86.1737905,175.139638 100.76,183.350222 C92.6885857,160.999915 92.748775,136.520567 100.93,114.210222 C95.7521716,117.090316 90.8572088,120.451836 86.31,124.250222 L86.31,124.250222 Z" id="Path"></path>
                <path d="M245.51,219.550222 C249.804078,198.033903 246.791476,175.699822 236.95,156.090222 C226.189317,172.183186 211.238182,185.032034 193.71,193.250222 C190.04216,201.274434 185.371571,208.801138 179.81,215.650222 C173.073202,223.896359 165.098458,231.047991 156.17,236.850222 C182.178846,250.055883 212.759631,250.812869 239.39,238.910222 C242.108633,232.691372 244.160104,226.201751 245.51,219.550222 L245.51,219.550222 Z" id="Path"></path>
                <path d="M56.77,131.780222 C58.0649536,135.356342 59.5709328,138.852484 61.28,142.250222 C69.8923478,129.014498 81.3725572,117.886316 94.87,109.690222 C98.1618244,107.686988 101.56388,105.870778 105.06,104.250222 C113.291016,86.8270877 126.074345,71.9500568 142.06,61.190222 C117.916654,49.1693439 89.9175935,47.5047106 64.52,56.580222 C62.88,57.170222 61.14,57.870222 59.23,58.700222 C49.0473125,81.8385348 48.1663513,108.009528 56.77,131.780222 L56.77,131.780222 Z" id="Path"></path>
                <path d="M149.1,232.920222 C162.754363,224.724237 174.210305,213.33007 182.48,199.720222 C182.94,198.960222 183.41,198.140222 183.9,197.270222 C161.605487,205.409428 137.157991,205.444829 114.84,197.370222 C123.098922,211.90513 134.880139,224.129948 149.1,232.920222 L149.1,232.920222 Z" id="Path"></path>
                <path d="M173.86,86.140222 C166.825963,77.736462 158.424777,70.5793951 149.01,64.970222 C134.830928,73.7042692 123.090418,85.8816508 114.88,100.370222 C125.830328,96.6547733 137.316515,94.7629307 148.88,94.770222 C160.792223,94.7732691 172.620745,96.7604609 183.88,100.650222 C181.002037,95.5102719 177.64728,90.6522357 173.86,86.140222 Z" id="Path"></path>
            </g>
            <g id="Group-2" transform="translate(0.000000, 395.000000)" fill="#1A171B">
                <path d="M143.02,45.55 C136.92,17.55 133.72,2.71 133.53,1.28 L133.47,0.89 L123.71,0.03 L123.57,0.35 C123.16,1.23 118.17,14.75 108.75,40.53 C99.45,65.97 90.65,89 82.58,109 C72.33,83.61 62.9,59.35 54.58,36.87 C46.14,14.19 41.53,1.87 40.86,0.36 L40.7,-5.68434189e-14 L30.28,1.6 L30.21,1.93 C29.68,4.29 26.03,19.93 19.36,48.46 C12.69,76.99 6.22,105.78 0.11,134.12 L0,134.62 L8.39,136.19 L8.49,135.71 C13.54,111.12 19.33,84.58 25.68,56.82 C31.58,31.06 35.03,16.13 36.17,11.37 C38.03,16.14 43.37,30.32 52.46,54.57 C62.14,80.38 70.82,102.62 78.25,120.65 L78.38,120.96 L85.82,120.96 L85.95,120.65 C93.76,101.15 102.3,79.02 111.31,54.87 C119.71,32.35 125.21,17.8 127.66,11.54 L152.82,135.91 L152.92,136.41 L161.62,134.41 L161.52,133.93 C155.36,103.21 149.13,73.48 143.02,45.55 Z" id="Path"></path>
                <path d="M277.45,72.65 C262.53,39.5 251.75,15.34 245.45,0.85 L245.32,0.55 L238.93,0.55 L238.79,0.85 C229.6,21.44 217.7,47.85 203.4,79.23 C188.4,112.17 180.79,128.9 178.7,133.47 L178.49,133.93 L186.18,137.35 L186.39,136.91 C187.66,134.18 190.39,128 194.55,118.53 C198.71,109.06 203.68,97.86 209.45,85.02 L273.51,85.02 C279.61,98.55 284.51,109.53 288.03,117.64 C291.55,125.75 294.44,132.21 296.71,137.1 L296.91,137.55 L305.06,133.93 L304.86,133.47 C301.5,126.15 292.363333,105.876667 277.45,72.65 Z M270.26,77.78 L212.64,77.78 C216.406667,69.3066667 221,58.9466667 226.42,46.7 C231.76,34.61 236.8,23.29 241.42,13.02 C245.56,22.17 250.28,32.69 255.84,45.15 C261.24,57.3 266.09,68.3 270.26,77.78 L270.26,77.78 Z" id="Shape"></path>
                <path d="M343.47,9.37 C358.01,9.37 369.476667,9.37 377.87,9.37 C386.263333,9.37 391,9.37 392.08,9.37 L392.58,9.37 L392.58,1.74 L392.08,1.74 L376.64,1.79 L375.82,1.79 C365.82,1.79 353.326667,1.79 338.34,1.79 C328.053333,1.79 318.353333,1.79 309.24,1.79 C300.126667,1.79 292.403333,1.77333333 286.07,1.74 L285.57,1.74 L285.57,9.37 L286.07,9.37 L301.31,9.37 C310.57,9.37 321.66,9.37 334.58,9.37 C334.58,23.15 334.58,34.67 334.68,43.63 C334.74,52.88 334.77,63.27 334.77,74.52 C334.77,85.77 334.77,97.96 334.68,110.36 C334.606667,122.573333 334.573333,130.66 334.58,134.62 L334.58,135.12 L343.5,135.12 L343.5,134.62 C343.5,130.66 343.466667,122.686667 343.4,110.7 C343.33,98.78 343.3,86.87 343.3,75.31 C343.3,63.31 343.3,52.48 343.4,43.18 C343.5,33.88 343.47,22.45 343.47,9.37 Z" id="Path"></path>
                <path d="M471.57,72.65 C456.65,39.5 445.88,15.34 439.57,0.85 L439.44,0.55 L433.02,0.55 L432.89,0.85 C423.7,21.44 411.79,47.85 397.49,79.23 C382.49,112.17 374.88,128.9 372.79,133.47 L372.58,133.93 L380.27,137.35 L380.48,136.91 C381.75,134.18 384.48,128 388.65,118.53 C392.82,109.06 397.77,97.86 403.54,85.02 L467.6,85.02 C473.7,98.55 478.6,109.53 482.12,117.64 C485.64,125.75 488.53,132.21 490.8,137.1 L491.01,137.55 L499.15,133.93 L498.95,133.47 C495.65,126.15 486.523333,105.876667 471.57,72.65 Z M464.38,77.78 L406.76,77.78 C410.526667,69.3066667 415.12,58.9466667 420.54,46.7 C425.88,34.61 430.93,23.29 435.54,13.02 C439.68,22.17 444.4,32.69 449.96,45.15 C455.36,57.3 460.22,68.3 464.38,77.78 Z" id="Shape"></path>
                <path d="M592.18,127.48 L576.34,127.53 C568.813333,127.57 562.443333,127.57 557.23,127.53 L524.56,127.53 C524.56,122.383333 524.526667,112.78 524.46,98.72 C524.4,84.85 524.37,75.1 524.36,69.72 C528.12,69.72 532.873333,69.7033333 538.62,69.67 L550.89,69.67 C555.776667,69.67 562.923333,69.67 572.33,69.67 L590.9,69.72 L591.4,69.72 L591.4,62.3 L590.9,62.3 L572.63,62.35 C563.75,62.39 556.503333,62.39 550.89,62.35 C548.576667,62.35 544.47,62.35 538.57,62.35 C532.91,62.35 528.173333,62.3333333 524.36,62.3 C524.36,51.56 524.36,41.51 524.46,32.41 C524.53,23.06 524.56,15.41 524.56,9.15 L551.19,9.15 C554.49,9.15 561.073333,9.15 570.94,9.15 C580.806667,9.15 587.473333,9.15 590.94,9.15 L591.44,9.15 L591.44,1.72 L590.94,1.72 L572.81,1.77 C563.97,1.77 556.97,1.77 551.81,1.77 C545.27,1.77 538.8,1.77 532.4,1.77 C526,1.77 520.586667,1.75333333 516.16,1.72 L515.66,1.72 L515.66,2.22 C515.66,14.95 515.66,27.34 515.76,39.05 C515.83,50.94 515.86,61.16 515.86,69.45 C515.86,90.68 515.86,106.37 515.76,116.08 C515.66,125.79 515.66,131.86 515.66,134.3 L515.66,134.8 L516.16,134.8 C519.726667,134.8 525.14,134.8 532.4,134.8 C539.66,134.8 546.46,134.783333 552.8,134.75 L572.4,134.8 L592.2,134.8 L592.7,134.8 L592.7,127.36 L592.18,127.48 Z" id="Path"></path>
            </g>
        </g>
    </g>
</svg>